<svg xmlns="http://www.w3.org/2000/svg" width="704.1" height="230" viewBox="0 0 704.1 230"><title>samy-brand</title><polygon points="158.12 0 57.54 100.78 57.54 14.22 71.73 0 158.12 0" style="fill:#98bbd7"/><polygon points="172.31 215.78 158.12 230 71.73 230 172.31 129.22 172.31 215.78" style="fill:#98bbd7"/><polygon points="0.15 71.72 57.69 129.22 57.69 215.78 0.15 158.28 0.15 71.72" style="fill:#01579b"/><polygon points="57.54 14.22 172.31 129.22 172.31 215.78 57.54 100.78 57.54 14.22" style="fill:#01579b"/><polygon points="172.46 14.22 230 72.03 229.69 158.28 172.46 100.78 172.46 14.22" style="fill:#01579b"/><polygon points="71.89 0 172.46 100.78 172.46 14.22 158.27 0 71.89 0" style="fill:#dae7f0"/><polygon points="57.69 215.78 71.89 230 158.27 230 57.69 129.22 57.69 215.78" style="fill:#dae7f0"/><polygon points="229.85 71.72 71.89 230 158.27 230 229.85 158.28 229.85 71.72" style="fill:#89b1d1"/><polygon points="172.46 14.22 57.69 129.22 57.69 215.78 172.46 100.78 172.46 14.22" style="fill:#89b1d1"/><polygon points="71.89 0 0 72.03 0.31 158.28 158.27 0 71.89 0" style="fill:#89b1d1"/><path d="M302,88.43c0-5.43,6.09-7.9,12-7.9,5.43,0,11.52,2.63,11.52,6.91v5.1h26.32V79.71c0-17.93-21.88-25.5-37.51-25.5-23.36,0-42,14.15-42,35.37,0,36.85,53.31,38.33,53.31,51.33,0,6.58-5.92,8.72-11.85,8.72-14.81,0-27-13.82-27-13.82l-16.29,20.57a57.48,57.48,0,0,0,42.94,19.41c26.49,0,41.79-16.78,41.79-36.36C355.31,100.77,302,102.74,302,88.43Z" transform="translate(0 0)" style="fill:#01579b"/><path d="M597.33,145.52l-7.24-89.33H559.32l-24.68,63.34h-.33L509.64,56.18H478.87l-7.24,89.33c-.16,2.3-1.32,3.62-3.62,3.62h-5.43c-2.63,0-3.45-.82-4.44-3.62L426.06,56.18h-30.6l-32.08,89.33c-1,2.8-1.81,3.62-4.44,3.62h-3.13v24.68h18.92c8.23,0,11.52-2.47,13.82-9.54l5.1-15.14h34.22l5.1,15.14c2.3,7.07,5.59,9.54,13.82,9.54h41.46c8.39,0,11.35-3.62,12-12l2.63-57.42h.33L523,154.9h23l19.74-50.51h.33l2.63,57.42c.66,8.39,3.62,12,12,12h24.35V149.14h-4.11C598.64,149.14,597.49,147.82,597.33,145.52ZM399.9,125.28l10.69-39h.33l10.69,39Z" transform="translate(0 0)" style="fill:#01579b"/><path d="M688,56.18c-7.24,0-11.19,1.15-15.14,7.9l-18.92,33.4h-.33l-19.08-33.4c-3.95-6.75-7.9-7.9-15.14-7.9H603.25V80.86H608c3.62,0,3.78.33,5.92,3.62l25,37.84v51.49H668.4V122.32l25-37.84c2.14-3.29,2.3-3.62,5.92-3.62h4.77V56.18Z" transform="translate(0 0)" style="fill:#01579b"/></svg>