<svg id="Layer_1" data-name="Layer 1" xmlns="http://www.w3.org/2000/svg" width="230" height="230" viewBox="0 0 230 230"><defs><style>.cls-1{fill:#98bbd7;}.cls-2{fill:#3e7fb3;}.cls-3{fill:#dae7f0;}.cls-4{fill:#89b1d1;}</style></defs><title>Artboard 1</title><polygon class="cls-1" points="158.12 0 57.54 100.78 57.54 14.22 71.73 0 158.12 0"/><polygon class="cls-1" points="172.31 215.78 158.12 230 71.73 230 172.31 129.22 172.31 215.78"/><polygon class="cls-2" points="0.15 71.72 57.69 129.22 57.69 215.78 0.15 158.28 0.15 71.72"/><polygon class="cls-2" points="57.54 14.22 172.31 129.22 172.31 215.78 57.54 100.78 57.54 14.22"/><polygon class="cls-2" points="172.46 14.22 230 72.03 229.69 158.28 172.46 100.78 172.46 14.22"/><polygon class="cls-3" points="71.89 0 172.46 100.78 172.46 14.22 158.27 0 71.89 0"/><polygon class="cls-3" points="57.69 215.78 71.89 230 158.27 230 57.69 129.22 57.69 215.78"/><polygon class="cls-4" points="229.85 71.72 71.89 230 158.27 230 229.85 158.28 229.85 71.72"/><polygon class="cls-4" points="172.46 14.22 57.69 129.22 57.69 215.78 172.46 100.78 172.46 14.22"/><polygon class="cls-4" points="71.89 0 0 72.03 0.31 158.28 158.27 0 71.89 0"/></svg>